<svg width="27" height="36" viewBox="0 0 27 36" fill="none" xmlns="http://www.w3.org/2000/svg">

<symbol id="red">
    <path  fill="#FF0013" d="M13.125 0.375C9.38802 0.466146 6.28906 1.74219 3.82812 4.20312C1.36719 6.66406 0.0911458 9.76302 0 13.5C0 14.9128 0.182292 16.1888 0.546875 17.3281C0.911458 18.513 1.61784 19.903 2.66602 21.498C3.71419 23.1387 5.2181 25.349 7.17773 28.1289C8.49935 29.9518 10.026 32.1393 11.7578 34.6914C12.1224 35.1471 12.5781 35.375 13.125 35.375C13.6719 35.375 14.1276 35.1471 14.4922 34.6914C16.2695 32.0938 17.7962 29.8835 19.0723 28.0605C21.0319 25.3262 22.5358 23.1387 23.584 21.498C24.6322 19.903 25.3385 18.513 25.7031 17.3281C26.0677 16.1888 26.25 14.9128 26.25 13.5C26.1589 9.76302 24.8828 6.66406 22.4219 4.20312C19.9609 1.74219 16.862 0.466146 13.125 0.375ZM13.125 18.9004C11.5755 18.8548 10.2767 18.3307 9.22852 17.3281C8.22591 16.2799 7.70182 14.9811 7.65625 13.4316C7.70182 11.8822 8.22591 10.6061 9.22852 9.60352C10.2767 8.55534 11.5755 8.00846 13.125 7.96289C14.6745 8.00846 15.9733 8.55534 17.0215 9.60352C18.0241 10.6061 18.5482 11.8822 18.5938 13.4316C18.5482 14.9811 18.0241 16.2799 17.0215 17.3281C15.9733 18.3307 14.6745 18.8548 13.125 18.9004Z"/>
</symbol>

<symbol id="green">
    <path  fill="#008000" d="M13.125 0.375C9.38802 0.466146 6.28906 1.74219 3.82812 4.20312C1.36719 6.66406 0.0911458 9.76302 0 13.5C0 14.9128 0.182292 16.1888 0.546875 17.3281C0.911458 18.513 1.61784 19.903 2.66602 21.498C3.71419 23.1387 5.2181 25.349 7.17773 28.1289C8.49935 29.9518 10.026 32.1393 11.7578 34.6914C12.1224 35.1471 12.5781 35.375 13.125 35.375C13.6719 35.375 14.1276 35.1471 14.4922 34.6914C16.2695 32.0938 17.7962 29.8835 19.0723 28.0605C21.0319 25.3262 22.5358 23.1387 23.584 21.498C24.6322 19.903 25.3385 18.513 25.7031 17.3281C26.0677 16.1888 26.25 14.9128 26.25 13.5C26.1589 9.76302 24.8828 6.66406 22.4219 4.20312C19.9609 1.74219 16.862 0.466146 13.125 0.375ZM13.125 18.9004C11.5755 18.8548 10.2767 18.3307 9.22852 17.3281C8.22591 16.2799 7.70182 14.9811 7.65625 13.4316C7.70182 11.8822 8.22591 10.6061 9.22852 9.60352C10.2767 8.55534 11.5755 8.00846 13.125 7.96289C14.6745 8.00846 15.9733 8.55534 17.0215 9.60352C18.0241 10.6061 18.5482 11.8822 18.5938 13.4316C18.5482 14.9811 18.0241 16.2799 17.0215 17.3281C15.9733 18.3307 14.6745 18.8548 13.125 18.9004Z"/>
</symbol>

<symbol id="blue">
    <path  fill="#0000FF" d="M13.125 0.375C9.38802 0.466146 6.28906 1.74219 3.82812 4.20312C1.36719 6.66406 0.0911458 9.76302 0 13.5C0 14.9128 0.182292 16.1888 0.546875 17.3281C0.911458 18.513 1.61784 19.903 2.66602 21.498C3.71419 23.1387 5.2181 25.349 7.17773 28.1289C8.49935 29.9518 10.026 32.1393 11.7578 34.6914C12.1224 35.1471 12.5781 35.375 13.125 35.375C13.6719 35.375 14.1276 35.1471 14.4922 34.6914C16.2695 32.0938 17.7962 29.8835 19.0723 28.0605C21.0319 25.3262 22.5358 23.1387 23.584 21.498C24.6322 19.903 25.3385 18.513 25.7031 17.3281C26.0677 16.1888 26.25 14.9128 26.25 13.5C26.1589 9.76302 24.8828 6.66406 22.4219 4.20312C19.9609 1.74219 16.862 0.466146 13.125 0.375ZM13.125 18.9004C11.5755 18.8548 10.2767 18.3307 9.22852 17.3281C8.22591 16.2799 7.70182 14.9811 7.65625 13.4316C7.70182 11.8822 8.22591 10.6061 9.22852 9.60352C10.2767 8.55534 11.5755 8.00846 13.125 7.96289C14.6745 8.00846 15.9733 8.55534 17.0215 9.60352C18.0241 10.6061 18.5482 11.8822 18.5938 13.4316C18.5482 14.9811 18.0241 16.2799 17.0215 17.3281C15.9733 18.3307 14.6745 18.8548 13.125 18.9004Z"/>
</symbol>

<symbol id="light-blue">
    <path  fill="#17ADDD" d="M13.125 0.375C9.38802 0.466146 6.28906 1.74219 3.82812 4.20312C1.36719 6.66406 0.0911458 9.76302 0 13.5C0 14.9128 0.182292 16.1888 0.546875 17.3281C0.911458 18.513 1.61784 19.903 2.66602 21.498C3.71419 23.1387 5.2181 25.349 7.17773 28.1289C8.49935 29.9518 10.026 32.1393 11.7578 34.6914C12.1224 35.1471 12.5781 35.375 13.125 35.375C13.6719 35.375 14.1276 35.1471 14.4922 34.6914C16.2695 32.0938 17.7962 29.8835 19.0723 28.0605C21.0319 25.3262 22.5358 23.1387 23.584 21.498C24.6322 19.903 25.3385 18.513 25.7031 17.3281C26.0677 16.1888 26.25 14.9128 26.25 13.5C26.1589 9.76302 24.8828 6.66406 22.4219 4.20312C19.9609 1.74219 16.862 0.466146 13.125 0.375ZM13.125 18.9004C11.5755 18.8548 10.2767 18.3307 9.22852 17.3281C8.22591 16.2799 7.70182 14.9811 7.65625 13.4316C7.70182 11.8822 8.22591 10.6061 9.22852 9.60352C10.2767 8.55534 11.5755 8.00846 13.125 7.96289C14.6745 8.00846 15.9733 8.55534 17.0215 9.60352C18.0241 10.6061 18.5482 11.8822 18.5938 13.4316C18.5482 14.9811 18.0241 16.2799 17.0215 17.3281C15.9733 18.3307 14.6745 18.8548 13.125 18.9004Z"/>
</symbol>

<symbol id="brown">
    <path  fill="#894C34" d="M13.125 0.375C9.38802 0.466146 6.28906 1.74219 3.82812 4.20312C1.36719 6.66406 0.0911458 9.76302 0 13.5C0 14.9128 0.182292 16.1888 0.546875 17.3281C0.911458 18.513 1.61784 19.903 2.66602 21.498C3.71419 23.1387 5.2181 25.349 7.17773 28.1289C8.49935 29.9518 10.026 32.1393 11.7578 34.6914C12.1224 35.1471 12.5781 35.375 13.125 35.375C13.6719 35.375 14.1276 35.1471 14.4922 34.6914C16.2695 32.0938 17.7962 29.8835 19.0723 28.0605C21.0319 25.3262 22.5358 23.1387 23.584 21.498C24.6322 19.903 25.3385 18.513 25.7031 17.3281C26.0677 16.1888 26.25 14.9128 26.25 13.5C26.1589 9.76302 24.8828 6.66406 22.4219 4.20312C19.9609 1.74219 16.862 0.466146 13.125 0.375ZM13.125 18.9004C11.5755 18.8548 10.2767 18.3307 9.22852 17.3281C8.22591 16.2799 7.70182 14.9811 7.65625 13.4316C7.70182 11.8822 8.22591 10.6061 9.22852 9.60352C10.2767 8.55534 11.5755 8.00846 13.125 7.96289C14.6745 8.00846 15.9733 8.55534 17.0215 9.60352C18.0241 10.6061 18.5482 11.8822 18.5938 13.4316C18.5482 14.9811 18.0241 16.2799 17.0215 17.3281C15.9733 18.3307 14.6745 18.8548 13.125 18.9004Z"/>
</symbol>

<symbol id="orange">
    <path  fill="#F38530" d="M13.125 0.375C9.38802 0.466146 6.28906 1.74219 3.82812 4.20312C1.36719 6.66406 0.0911458 9.76302 0 13.5C0 14.9128 0.182292 16.1888 0.546875 17.3281C0.911458 18.513 1.61784 19.903 2.66602 21.498C3.71419 23.1387 5.2181 25.349 7.17773 28.1289C8.49935 29.9518 10.026 32.1393 11.7578 34.6914C12.1224 35.1471 12.5781 35.375 13.125 35.375C13.6719 35.375 14.1276 35.1471 14.4922 34.6914C16.2695 32.0938 17.7962 29.8835 19.0723 28.0605C21.0319 25.3262 22.5358 23.1387 23.584 21.498C24.6322 19.903 25.3385 18.513 25.7031 17.3281C26.0677 16.1888 26.25 14.9128 26.25 13.5C26.1589 9.76302 24.8828 6.66406 22.4219 4.20312C19.9609 1.74219 16.862 0.466146 13.125 0.375ZM13.125 18.9004C11.5755 18.8548 10.2767 18.3307 9.22852 17.3281C8.22591 16.2799 7.70182 14.9811 7.65625 13.4316C7.70182 11.8822 8.22591 10.6061 9.22852 9.60352C10.2767 8.55534 11.5755 8.00846 13.125 7.96289C14.6745 8.00846 15.9733 8.55534 17.0215 9.60352C18.0241 10.6061 18.5482 11.8822 18.5938 13.4316C18.5482 14.9811 18.0241 16.2799 17.0215 17.3281C15.9733 18.3307 14.6745 18.8548 13.125 18.9004Z"/>
</symbol>

<symbol id="purple">
    <path  fill="#8B4A98" d="M13.125 0.375C9.38802 0.466146 6.28906 1.74219 3.82812 4.20312C1.36719 6.66406 0.0911458 9.76302 0 13.5C0 14.9128 0.182292 16.1888 0.546875 17.3281C0.911458 18.513 1.61784 19.903 2.66602 21.498C3.71419 23.1387 5.2181 25.349 7.17773 28.1289C8.49935 29.9518 10.026 32.1393 11.7578 34.6914C12.1224 35.1471 12.5781 35.375 13.125 35.375C13.6719 35.375 14.1276 35.1471 14.4922 34.6914C16.2695 32.0938 17.7962 29.8835 19.0723 28.0605C21.0319 25.3262 22.5358 23.1387 23.584 21.498C24.6322 19.903 25.3385 18.513 25.7031 17.3281C26.0677 16.1888 26.25 14.9128 26.25 13.5C26.1589 9.76302 24.8828 6.66406 22.4219 4.20312C19.9609 1.74219 16.862 0.466146 13.125 0.375ZM13.125 18.9004C11.5755 18.8548 10.2767 18.3307 9.22852 17.3281C8.22591 16.2799 7.70182 14.9811 7.65625 13.4316C7.70182 11.8822 8.22591 10.6061 9.22852 9.60352C10.2767 8.55534 11.5755 8.00846 13.125 7.96289C14.6745 8.00846 15.9733 8.55534 17.0215 9.60352C18.0241 10.6061 18.5482 11.8822 18.5938 13.4316C18.5482 14.9811 18.0241 16.2799 17.0215 17.3281C15.9733 18.3307 14.6745 18.8548 13.125 18.9004Z"/>
</symbol>

<symbol id="yellow">
    <path  fill="#FECA2E" d="M13.125 0.375C9.38802 0.466146 6.28906 1.74219 3.82812 4.20312C1.36719 6.66406 0.0911458 9.76302 0 13.5C0 14.9128 0.182292 16.1888 0.546875 17.3281C0.911458 18.513 1.61784 19.903 2.66602 21.498C3.71419 23.1387 5.2181 25.349 7.17773 28.1289C8.49935 29.9518 10.026 32.1393 11.7578 34.6914C12.1224 35.1471 12.5781 35.375 13.125 35.375C13.6719 35.375 14.1276 35.1471 14.4922 34.6914C16.2695 32.0938 17.7962 29.8835 19.0723 28.0605C21.0319 25.3262 22.5358 23.1387 23.584 21.498C24.6322 19.903 25.3385 18.513 25.7031 17.3281C26.0677 16.1888 26.25 14.9128 26.25 13.5C26.1589 9.76302 24.8828 6.66406 22.4219 4.20312C19.9609 1.74219 16.862 0.466146 13.125 0.375ZM13.125 18.9004C11.5755 18.8548 10.2767 18.3307 9.22852 17.3281C8.22591 16.2799 7.70182 14.9811 7.65625 13.4316C7.70182 11.8822 8.22591 10.6061 9.22852 9.60352C10.2767 8.55534 11.5755 8.00846 13.125 7.96289C14.6745 8.00846 15.9733 8.55534 17.0215 9.60352C18.0241 10.6061 18.5482 11.8822 18.5938 13.4316C18.5482 14.9811 18.0241 16.2799 17.0215 17.3281C15.9733 18.3307 14.6745 18.8548 13.125 18.9004Z"/>
</symbol>

<symbol id="grey">
    <path  fill="#9FA1A3" d="M13.125 0.375C9.38802 0.466146 6.28906 1.74219 3.82812 4.20312C1.36719 6.66406 0.0911458 9.76302 0 13.5C0 14.9128 0.182292 16.1888 0.546875 17.3281C0.911458 18.513 1.61784 19.903 2.66602 21.498C3.71419 23.1387 5.2181 25.349 7.17773 28.1289C8.49935 29.9518 10.026 32.1393 11.7578 34.6914C12.1224 35.1471 12.5781 35.375 13.125 35.375C13.6719 35.375 14.1276 35.1471 14.4922 34.6914C16.2695 32.0938 17.7962 29.8835 19.0723 28.0605C21.0319 25.3262 22.5358 23.1387 23.584 21.498C24.6322 19.903 25.3385 18.513 25.7031 17.3281C26.0677 16.1888 26.25 14.9128 26.25 13.5C26.1589 9.76302 24.8828 6.66406 22.4219 4.20312C19.9609 1.74219 16.862 0.466146 13.125 0.375ZM13.125 18.9004C11.5755 18.8548 10.2767 18.3307 9.22852 17.3281C8.22591 16.2799 7.70182 14.9811 7.65625 13.4316C7.70182 11.8822 8.22591 10.6061 9.22852 9.60352C10.2767 8.55534 11.5755 8.00846 13.125 7.96289C14.6745 8.00846 15.9733 8.55534 17.0215 9.60352C18.0241 10.6061 18.5482 11.8822 18.5938 13.4316C18.5482 14.9811 18.0241 16.2799 17.0215 17.3281C15.9733 18.3307 14.6745 18.8548 13.125 18.9004Z"/>
</symbol>

<symbol id="lime">
    <path  fill="#B3D446" d="M13.125 0.375C9.38802 0.466146 6.28906 1.74219 3.82812 4.20312C1.36719 6.66406 0.0911458 9.76302 0 13.5C0 14.9128 0.182292 16.1888 0.546875 17.3281C0.911458 18.513 1.61784 19.903 2.66602 21.498C3.71419 23.1387 5.2181 25.349 7.17773 28.1289C8.49935 29.9518 10.026 32.1393 11.7578 34.6914C12.1224 35.1471 12.5781 35.375 13.125 35.375C13.6719 35.375 14.1276 35.1471 14.4922 34.6914C16.2695 32.0938 17.7962 29.8835 19.0723 28.0605C21.0319 25.3262 22.5358 23.1387 23.584 21.498C24.6322 19.903 25.3385 18.513 25.7031 17.3281C26.0677 16.1888 26.25 14.9128 26.25 13.5C26.1589 9.76302 24.8828 6.66406 22.4219 4.20312C19.9609 1.74219 16.862 0.466146 13.125 0.375ZM13.125 18.9004C11.5755 18.8548 10.2767 18.3307 9.22852 17.3281C8.22591 16.2799 7.70182 14.9811 7.65625 13.4316C7.70182 11.8822 8.22591 10.6061 9.22852 9.60352C10.2767 8.55534 11.5755 8.00846 13.125 7.96289C14.6745 8.00846 15.9733 8.55534 17.0215 9.60352C18.0241 10.6061 18.5482 11.8822 18.5938 13.4316C18.5482 14.9811 18.0241 16.2799 17.0215 17.3281C15.9733 18.3307 14.6745 18.8548 13.125 18.9004Z"/>
</symbol>

<symbol id="teal">
    <path  fill="#78CECC" d="M13.125 0.375C9.38802 0.466146 6.28906 1.74219 3.82812 4.20312C1.36719 6.66406 0.0911458 9.76302 0 13.5C0 14.9128 0.182292 16.1888 0.546875 17.3281C0.911458 18.513 1.61784 19.903 2.66602 21.498C3.71419 23.1387 5.2181 25.349 7.17773 28.1289C8.49935 29.9518 10.026 32.1393 11.7578 34.6914C12.1224 35.1471 12.5781 35.375 13.125 35.375C13.6719 35.375 14.1276 35.1471 14.4922 34.6914C16.2695 32.0938 17.7962 29.8835 19.0723 28.0605C21.0319 25.3262 22.5358 23.1387 23.584 21.498C24.6322 19.903 25.3385 18.513 25.7031 17.3281C26.0677 16.1888 26.25 14.9128 26.25 13.5C26.1589 9.76302 24.8828 6.66406 22.4219 4.20312C19.9609 1.74219 16.862 0.466146 13.125 0.375ZM13.125 18.9004C11.5755 18.8548 10.2767 18.3307 9.22852 17.3281C8.22591 16.2799 7.70182 14.9811 7.65625 13.4316C7.70182 11.8822 8.22591 10.6061 9.22852 9.60352C10.2767 8.55534 11.5755 8.00846 13.125 7.96289C14.6745 8.00846 15.9733 8.55534 17.0215 9.60352C18.0241 10.6061 18.5482 11.8822 18.5938 13.4316C18.5482 14.9811 18.0241 16.2799 17.0215 17.3281C15.9733 18.3307 14.6745 18.8548 13.125 18.9004Z"/>
</symbol>

<symbol id="blue-grey">
    <path  fill="#AABEE0" d="M13.125 0.375C9.38802 0.466146 6.28906 1.74219 3.82812 4.20312C1.36719 6.66406 0.0911458 9.76302 0 13.5C0 14.9128 0.182292 16.1888 0.546875 17.3281C0.911458 18.513 1.61784 19.903 2.66602 21.498C3.71419 23.1387 5.2181 25.349 7.17773 28.1289C8.49935 29.9518 10.026 32.1393 11.7578 34.6914C12.1224 35.1471 12.5781 35.375 13.125 35.375C13.6719 35.375 14.1276 35.1471 14.4922 34.6914C16.2695 32.0938 17.7962 29.8835 19.0723 28.0605C21.0319 25.3262 22.5358 23.1387 23.584 21.498C24.6322 19.903 25.3385 18.513 25.7031 17.3281C26.0677 16.1888 26.25 14.9128 26.25 13.5C26.1589 9.76302 24.8828 6.66406 22.4219 4.20312C19.9609 1.74219 16.862 0.466146 13.125 0.375ZM13.125 18.9004C11.5755 18.8548 10.2767 18.3307 9.22852 17.3281C8.22591 16.2799 7.70182 14.9811 7.65625 13.4316C7.70182 11.8822 8.22591 10.6061 9.22852 9.60352C10.2767 8.55534 11.5755 8.00846 13.125 7.96289C14.6745 8.00846 15.9733 8.55534 17.0215 9.60352C18.0241 10.6061 18.5482 11.8822 18.5938 13.4316C18.5482 14.9811 18.0241 16.2799 17.0215 17.3281C15.9733 18.3307 14.6745 18.8548 13.125 18.9004Z"/>
</symbol>

<symbol id="pink">
    <path  fill="#F089B6" d="M13.125 0.375C9.38802 0.466146 6.28906 1.74219 3.82812 4.20312C1.36719 6.66406 0.0911458 9.76302 0 13.5C0 14.9128 0.182292 16.1888 0.546875 17.3281C0.911458 18.513 1.61784 19.903 2.66602 21.498C3.71419 23.1387 5.2181 25.349 7.17773 28.1289C8.49935 29.9518 10.026 32.1393 11.7578 34.6914C12.1224 35.1471 12.5781 35.375 13.125 35.375C13.6719 35.375 14.1276 35.1471 14.4922 34.6914C16.2695 32.0938 17.7962 29.8835 19.0723 28.0605C21.0319 25.3262 22.5358 23.1387 23.584 21.498C24.6322 19.903 25.3385 18.513 25.7031 17.3281C26.0677 16.1888 26.25 14.9128 26.25 13.5C26.1589 9.76302 24.8828 6.66406 22.4219 4.20312C19.9609 1.74219 16.862 0.466146 13.125 0.375ZM13.125 18.9004C11.5755 18.8548 10.2767 18.3307 9.22852 17.3281C8.22591 16.2799 7.70182 14.9811 7.65625 13.4316C7.70182 11.8822 8.22591 10.6061 9.22852 9.60352C10.2767 8.55534 11.5755 8.00846 13.125 7.96289C14.6745 8.00846 15.9733 8.55534 17.0215 9.60352C18.0241 10.6061 18.5482 11.8822 18.5938 13.4316C18.5482 14.9811 18.0241 16.2799 17.0215 17.3281C15.9733 18.3307 14.6745 18.8548 13.125 18.9004Z"/>
</symbol>

</svg>
