<svg version="1.1" xmlns="http://www.w3.org/2000/svg" xmlns:xlink="http://www.w3.org/1999/xlink" width="125px" height="85.9px" xml:space="preserve">

<symbol id="red"  viewBox="337.5 232.3 125 85.9">
	<polygon fill="#FF0013" points="453.9,306.2 424.7,232.3 400,275.5 375.4,232.3 346.1,306.2 337.5,306.2 337.5,317.4 381.7,317.4
		381.7,306.2 375.1,306.2 381.5,287.8 400,318.2 418.5,287.8 424.9,306.2 418.3,306.2 418.3,317.4 462.5,317.4 462.5,306.2 "/>
</symbol>

<symbol id="green"  viewBox="337.5 232.3 125 85.9">
	<polygon fill="#008000" points="453.9,306.2 424.7,232.3 400,275.5 375.4,232.3 346.1,306.2 337.5,306.2 337.5,317.4 381.7,317.4
		381.7,306.2 375.1,306.2 381.5,287.8 400,318.2 418.5,287.8 424.9,306.2 418.3,306.2 418.3,317.4 462.5,317.4 462.5,306.2 "/>
</symbol>

<symbol id="blue"  viewBox="337.5 232.3 125 85.9">
	<polygon fill="#0000FF" points="453.9,306.2 424.7,232.3 400,275.5 375.4,232.3 346.1,306.2 337.5,306.2 337.5,317.4 381.7,317.4
		381.7,306.2 375.1,306.2 381.5,287.8 400,318.2 418.5,287.8 424.9,306.2 418.3,306.2 418.3,317.4 462.5,317.4 462.5,306.2 "/>
</symbol>

<symbol id="light-blue"  viewBox="337.5 232.3 125 85.9">
	<polygon fill="#17ADDD" points="453.9,306.2 424.7,232.3 400,275.5 375.4,232.3 346.1,306.2 337.5,306.2 337.5,317.4 381.7,317.4
		381.7,306.2 375.1,306.2 381.5,287.8 400,318.2 418.5,287.8 424.9,306.2 418.3,306.2 418.3,317.4 462.5,317.4 462.5,306.2 "/>
</symbol>

<symbol id="brown"  viewBox="337.5 232.3 125 85.9">
	<polygon fill="#894C34" points="453.9,306.2 424.7,232.3 400,275.5 375.4,232.3 346.1,306.2 337.5,306.2 337.5,317.4 381.7,317.4
		381.7,306.2 375.1,306.2 381.5,287.8 400,318.2 418.5,287.8 424.9,306.2 418.3,306.2 418.3,317.4 462.5,317.4 462.5,306.2 "/>
</symbol>

<symbol id="orange"  viewBox="337.5 232.3 125 85.9">
	<polygon fill="#F38530" points="453.9,306.2 424.7,232.3 400,275.5 375.4,232.3 346.1,306.2 337.5,306.2 337.5,317.4 381.7,317.4
		381.7,306.2 375.1,306.2 381.5,287.8 400,318.2 418.5,287.8 424.9,306.2 418.3,306.2 418.3,317.4 462.5,317.4 462.5,306.2 "/>
</symbol>

<symbol id="purple"  viewBox="337.5 232.3 125 85.9">
	<polygon fill="#8B4A98" points="453.9,306.2 424.7,232.3 400,275.5 375.4,232.3 346.1,306.2 337.5,306.2 337.5,317.4 381.7,317.4
		381.7,306.2 375.1,306.2 381.5,287.8 400,318.2 418.5,287.8 424.9,306.2 418.3,306.2 418.3,317.4 462.5,317.4 462.5,306.2 "/>
</symbol>

<symbol id="yellow"  viewBox="337.5 232.3 125 85.9">
	<polygon fill="#FECA2E" points="453.9,306.2 424.7,232.3 400,275.5 375.4,232.3 346.1,306.2 337.5,306.2 337.5,317.4 381.7,317.4
		381.7,306.2 375.1,306.2 381.5,287.8 400,318.2 418.5,287.8 424.9,306.2 418.3,306.2 418.3,317.4 462.5,317.4 462.5,306.2 "/>
</symbol>

<symbol id="grey"  viewBox="337.5 232.3 125 85.9">
	<polygon fill="#9FA1A3" points="453.9,306.2 424.7,232.3 400,275.5 375.4,232.3 346.1,306.2 337.5,306.2 337.5,317.4 381.7,317.4
		381.7,306.2 375.1,306.2 381.5,287.8 400,318.2 418.5,287.8 424.9,306.2 418.3,306.2 418.3,317.4 462.5,317.4 462.5,306.2 "/>
</symbol>

<symbol id="lime"  viewBox="337.5 232.3 125 85.9">
	<polygon fill="#B3D446" points="453.9,306.2 424.7,232.3 400,275.5 375.4,232.3 346.1,306.2 337.5,306.2 337.5,317.4 381.7,317.4
		381.7,306.2 375.1,306.2 381.5,287.8 400,318.2 418.5,287.8 424.9,306.2 418.3,306.2 418.3,317.4 462.5,317.4 462.5,306.2 "/>
</symbol>

<symbol id="teal"  viewBox="337.5 232.3 125 85.9">
	<polygon fill="#78CECC" points="453.9,306.2 424.7,232.3 400,275.5 375.4,232.3 346.1,306.2 337.5,306.2 337.5,317.4 381.7,317.4
		381.7,306.2 375.1,306.2 381.5,287.8 400,318.2 418.5,287.8 424.9,306.2 418.3,306.2 418.3,317.4 462.5,317.4 462.5,306.2 "/>
</symbol>

<symbol id="blue-grey"  viewBox="337.5 232.3 125 85.9">
	<polygon fill="#AABEE0" points="453.9,306.2 424.7,232.3 400,275.5 375.4,232.3 346.1,306.2 337.5,306.2 337.5,317.4 381.7,317.4
		381.7,306.2 375.1,306.2 381.5,287.8 400,318.2 418.5,287.8 424.9,306.2 418.3,306.2 418.3,317.4 462.5,317.4 462.5,306.2 "/>
</symbol>

<symbol id="pink"  viewBox="337.5 232.3 125 85.9">
	<polygon fill="#F089B6" points="453.9,306.2 424.7,232.3 400,275.5 375.4,232.3 346.1,306.2 337.5,306.2 337.5,317.4 381.7,317.4
		381.7,306.2 375.1,306.2 381.5,287.8 400,318.2 418.5,287.8 424.9,306.2 418.3,306.2 418.3,317.4 462.5,317.4 462.5,306.2 "/>
</symbol>

</svg>